# xmcd
#
# Track frame offsets:
#	150
#	16557
#	29655
#	47152
#	62810
#	79122
#	96010
#	114317
#	131710
#	145325
#	161475
#	180220
#	194290
#	210180
#	226595
#	239115
#
# Disc length: 3218
#
# Revision: 1
# Processed by: cddbd v1.5.1PL0 Copyright (c) Steve Scherf et al.
# Submitted via: VisiTrax 2.9.5.180 - For more info visit www.synapsa.com
# Normalized: r0:DSETVAR1
#
DISCID=ca0c9010
DTITLE=Various Artist - CDX 169A September 1997
DYEAR=1997
DGENRE=
TTITLE0=Martina McBride - A broken wing
TTITLE1=Ricochet - Blink of an eye
TTITLE2=Eddie Rabbitt - Great old american town
TTITLE3=Ty Herndin - I have to surrender
TTITLE4=Trisha Yearwood/Garth Brooks - In another's ees
TTITLE5=Lila McCann - I wanna fall in love
TTITLE6=Ruby Lovett - Look what love can do
TTITLE7=Sherrie Austin - One solitary tear
TTITLE8=Rick Trevino - See Rock city
TTITLE9=Prairie Oyster - She won't be lonely long
TTITLE10=John Anderson - Small town
TTITLE11=Tracy Lawrence - While you sleep
TTITLE12=Wade Hayes - Wichita Lineman
TTITLE13=LeAnn Rimes - ou light up my life
TTITLE14=R B Stone - There's pretty girl everywhere
TTITLE15=Kevin Sharp - PSA
EXTD=
EXTT0=
EXTT1=
EXTT2=
EXTT3=
EXTT4=
EXTT5=
EXTT6=
EXTT7=
EXTT8=
EXTT9=
EXTT10=
EXTT11=
EXTT12=
EXTT13=
EXTT14=
EXTT15=
PLAYORDER=
